HIERARCHY
ROOT Hips
{
	OFFSET 0.000000 0.000000 0.000000 
	CHANNELS 6 Xposition Yposition Zposition Zrotation Yrotation Xrotation
	JOINT LeftUpLeg
	{
		OFFSET 1.363060 -1.794630 0.839290 
		CHANNELS 3 Zrotation Yrotation Xrotation
		JOINT LeftLeg
		{
			OFFSET 2.448110 -6.726130 0.000000 
			CHANNELS 3 Zrotation Yrotation Xrotation
			JOINT LeftFoot
			{
				OFFSET 2.562200 -7.039590 0.000000 
				CHANNELS 3 Zrotation Yrotation Xrotation
				JOINT LeftToeBase
				{
					OFFSET 0.157640 -0.433110 2.322550 
					CHANNELS 3 Zrotation Yrotation Xrotation
					End Site
					{
						OFFSET 0.000000 0.000000 0.000000 
					}
				}
			}
		}
	}
	JOINT RightUpLeg
	{
		OFFSET -1.305520 -1.794630 0.839290 
		CHANNELS 3 Zrotation Yrotation Xrotation
		JOINT RightLeg
		{
			OFFSET -2.542530 -6.985550 0.000000 
			CHANNELS 3 Zrotation Yrotation Xrotation
			JOINT RightFoot
			{
				OFFSET -2.568260 -7.056230 0.000000 
				CHANNELS 3 Zrotation Yrotation Xrotation
				JOINT RightToeBase
				{
					OFFSET -0.164730 -0.452590 2.363150 
					CHANNELS 3 Zrotation Yrotation Xrotation
					End Site
					{
						OFFSET 0.000000 0.000000 0.000000 
					}
				}
			}
		}
	}
	JOINT Spine
	{
		OFFSET 0.028270 2.035590 -0.193380 
		CHANNELS 3 Zrotation Yrotation Xrotation
		JOINT Spine1
		{
			OFFSET 0.056720 2.048850 -0.042750 
			CHANNELS 3 Zrotation Yrotation Xrotation
			JOINT Neck1
			{
				OFFSET -0.054170 1.746240 0.172020 
				CHANNELS 3 Zrotation Yrotation Xrotation
				JOINT Head
				{
					OFFSET 0.104070 1.761360 -0.123970 
					CHANNELS 3 Zrotation Yrotation Xrotation
					End Site
					{
						OFFSET 0.000000 0.000000 0.000000 
					}
				}
			}
			JOINT LeftArm
			{
				OFFSET 3.362410 1.200890 -0.311210 
				CHANNELS 3 Zrotation Yrotation Xrotation
				JOINT LeftForeArm
				{
					OFFSET 4.983000 -0.000000 -0.000000 
					CHANNELS 3 Zrotation Yrotation Xrotation
					JOINT LeftHand
					{
						OFFSET 3.483560 -0.000000 -0.000000 
						CHANNELS 3 Zrotation Yrotation Xrotation
						JOINT LeftHandIndex1
						{
							OFFSET 0.715260 -0.000000 -0.000000 
							CHANNELS 3 Zrotation Yrotation Xrotation
							End Site
							{
								OFFSET 0.000000 0.000000 0.000000 
							}
						}
					}
				}
			}
			JOINT RightArm
			{
				OFFSET -3.136600 1.374050 -0.404650 
				CHANNELS 3 Zrotation Yrotation Xrotation
				JOINT RightForeArm
				{
					OFFSET -5.241900 -0.000000 -0.000000 
					CHANNELS 3 Zrotation Yrotation Xrotation
					JOINT RightHand
					{
						OFFSET -3.444170 -0.000000 -0.000000 
						CHANNELS 3 Zrotation Yrotation Xrotation
						JOINT RightHandIndex1
						{
							OFFSET -0.622530 -0.000000 -0.000000 
							CHANNELS 3 Zrotation Yrotation Xrotation
							End Site
							{
								OFFSET 0.000000 0.000000 0.000000 
							}
						}
					}
				}
			}
		}
	}
}
MOTION
Frames: 7
Frame Time: 0.041667
0.294063 14.680243 -13.773616 -2.503948 -0.490217 36.894701 -6.020398 -13.967071 -71.678327 14.647543 21.254272 74.706327 0.385702 13.214726 -30.491796 1.182600 -6.901600 -19.424300 9.440079 21.223926 -72.847991 -15.173313 -21.787618 76.338499 -2.146565 -8.240753 -34.585420 -0.025100 1.023700 -2.813900 1.756412 1.867338 -2.318387 3.251889 0.648618 -7.333324 0.594675 1.639095 -3.555783 -0.732100 0.503600 2.069200 -94.961770 -23.061403 10.608217 4.647535 -10.293328 -0.379116 -0.241813 -0.314652 5.762740 -7.125000 0.000000 0.000000 90.470654 20.554615 11.000465 -11.037632 21.201562 -2.450856 0.887949 0.637887 27.709773 7.125000 0.000000 0.000000 
0.285546 14.747067 -13.614822 -2.519883 -0.442030 36.552239 -6.432127 -13.685907 -70.116974 14.327647 21.142961 73.804224 0.366933 13.336395 -30.580886 1.311800 -7.254700 -20.472300 10.073711 21.077410 -71.155349 -14.837426 -21.684651 75.401615 -2.136169 -8.497170 -34.800098 -0.049300 1.432300 -3.939100 1.768596 1.860171 -2.387286 3.301262 0.651794 -7.358037 0.696046 1.658590 -3.186445 -0.686300 0.521600 2.247100 -94.963014 -24.011215 13.606847 5.149345 -11.228642 -0.485945 -0.217300 -0.329529 2.166948 -7.125000 0.000000 0.000000 90.393329 21.755022 11.777136 -11.392413 21.688848 -2.592134 0.886288 0.633427 27.252570 7.125000 0.000000 0.000000 
0.277028 14.822813 -13.445685 -2.526537 -0.387163 36.149376 -6.897623 -13.361681 -68.385201 13.958987 21.006872 72.758578 0.330720 13.474816 -30.603703 1.439500 -7.585200 -21.461100 10.758897 20.872400 -69.273996 -14.452100 -21.556543 74.319232 -2.123179 -8.724897 -34.977948 -0.085000 1.880400 -5.175300 1.777640 1.836103 -2.460809 3.337397 0.647704 -7.387130 0.813080 1.671794 -2.757387 -0.636100 0.537900 2.450900 -94.904801 -24.851209 16.441037 5.678706 -12.195540 -0.607299 -0.194089 -0.341560 -0.980068 -7.125000 0.000000 0.000000 90.316875 22.837068 12.626149 -11.768520 22.207959 -2.745685 0.883281 0.628106 26.956899 7.125000 0.000000 0.000000 
0.268206 14.908294 -13.265394 -2.507830 -0.311449 35.671483 -7.423873 -13.005054 -66.459642 13.536837 20.841107 71.553713 0.275610 13.626489 -30.549288 1.568100 -7.901700 -22.416100 11.500570 20.573646 -67.182068 -14.013921 -21.396863 73.079653 -2.102454 -8.941372 -35.109958 -0.135000 2.368400 -6.524900 1.784088 1.788543 -2.537844 3.363592 0.632744 -7.421522 0.945861 1.671986 -2.258634 -0.580500 0.549800 2.684600 -94.795189 -25.578041 19.086154 6.225612 -13.174879 -0.741686 -0.172306 -0.351130 -3.631314 -7.125000 0.000000 0.000000 90.244385 23.767014 13.559272 -12.182965 22.783988 -2.918975 0.878750 0.623035 26.740992 7.125000 0.000000 0.000000 
0.259384 15.003611 -13.073441 -2.464115 -0.218383 35.113307 -8.005146 -12.609562 -64.336556 13.061971 20.641191 70.188312 0.197046 13.794824 -30.398679 1.703300 -8.218500 -23.379900 12.300316 20.167164 -64.873642 -13.520786 -21.199549 71.673210 -2.068621 -9.163709 -35.187208 -0.200400 2.882400 -7.951500 1.788863 1.722939 -2.616059 3.382632 0.608841 -7.452119 1.069220 1.664376 -1.676944 -0.531600 0.558000 2.957200 -94.650843 -26.199900 21.538120 6.779194 -14.148359 -0.887016 -0.151857 -0.358823 -5.797703 -7.125000 0.000000 0.000000 90.168095 24.523974 14.594972 -12.645544 23.429821 -3.117069 0.873132 0.619823 26.459585 7.125000 0.000000 0.000000 
0.250968 15.108460 -12.869524 -2.390554 -0.107244 34.467521 -8.640067 -12.172387 -62.020899 12.538868 20.403841 68.670824 0.095132 13.962314 -30.130420 1.847200 -8.540300 -24.367500 13.146658 19.634002 -62.343431 -12.972576 -20.957452 70.094291 -2.022625 -9.379342 -35.202383 -0.276500 3.382200 -9.344700 1.792768 1.634984 -2.693247 3.408438 0.568311 -7.448054 1.239754 1.616820 -0.519474 -0.428100 0.553500 3.069300 -94.496408 -26.720807 23.782984 7.331126 -15.100342 -1.040783 -0.132499 -0.365352 -7.545231 -7.125000 0.000000 0.000000 90.078275 25.118657 15.716194 -13.146164 24.132932 -3.337278 0.867155 0.619176 26.042963 7.125000 0.000000 0.000000 
0.243261 15.221928 -12.653742 -2.294110 0.011552 33.748888 -9.312077 -11.676173 -59.551377 11.978822 20.127992 67.027335 -0.026991 14.102105 -29.723941 2.000700 -8.867600 -25.381900 14.023850 18.976807 -59.621820 -12.372418 -20.665763 68.344441 -1.962263 -9.579462 -35.135582 -0.358900 3.848700 -10.651300 1.796129 1.543394 -2.768909 3.427023 0.529432 -7.444057 1.373984 1.570683 0.278395 -0.372500 0.547500 3.372100 -94.356724 -27.125203 25.814167 7.876232 -16.026925 -1.201494 -0.113591 -0.371438 -8.966705 -7.125000 0.000000 0.000000 89.968622 25.540339 16.875043 -13.661657 24.852191 -3.569532 0.861550 0.619891 25.511693 7.125000 0.000000 0.000000 
